# This file uses centimeters as units for non-parametric coordinates.

mtllib pilaar 1.mtl
g default
v 16.150434 -71.414539 -0.410452
v 26.046841 -71.414539 -0.410452
v 16.150434 -2.493489 -0.410452
v 26.046841 -2.493489 -0.410452
v 16.150434 -2.493489 -10.175930
v 26.046841 -2.493489 -10.175930
v 16.150434 -71.414539 -10.175930
v 26.046841 -71.414539 -10.175930
v 16.150433 -47.565765 -0.410452
v 16.150434 -47.565765 -10.175930
v 26.046841 -47.565765 -10.175930
v 26.046841 -47.565765 -0.410452
v 16.150434 -71.414539 9.239428
v 26.046841 -71.414539 9.239428
v 26.046841 -47.565765 9.239428
v 16.150433 -47.565765 9.239428
vt 0.375000 0.000000
vt 0.625000 0.000000
vt 0.375000 0.250000
vt 0.625000 0.250000
vt 0.375000 0.500000
vt 0.625000 0.500000
vt 0.375000 0.750000
vt 0.625000 0.750000
vt 0.375000 1.000000
vt 0.625000 1.000000
vt 0.875000 0.000000
vt 0.875000 0.250000
vt 0.125000 0.000000
vt 0.125000 0.250000
vt 0.375000 0.064658
vt 0.125000 0.064658
vt 0.375000 0.685342
vt 0.625000 0.685342
vt 0.875000 0.064658
vt 0.625000 0.064658
vt 0.375000 0.000000
vt 0.625000 0.000000
vt 0.625000 0.064658
vt 0.375000 0.064658
vn 0.000000 0.000000 1.000000
vn 0.000000 0.000000 1.000000
vn 0.000000 0.000000 1.000000
vn 0.000000 0.000000 1.000000
vn 0.000000 1.000000 0.000000
vn 0.000000 1.000000 0.000000
vn 0.000000 1.000000 0.000000
vn 0.000000 1.000000 0.000000
vn 0.000000 0.000000 -1.000000
vn 0.000000 0.000000 -1.000000
vn 0.000000 0.000000 -1.000000
vn 0.000000 0.000000 -1.000000
vn 0.000000 -1.000000 0.000000
vn 0.000000 -1.000000 0.000000
vn 0.000000 -1.000000 0.000000
vn 0.000000 -1.000000 0.000000
vn 1.000000 0.000000 0.000000
vn 1.000000 0.000000 0.000000
vn 1.000000 0.000000 0.000000
vn 1.000000 0.000000 0.000000
vn -1.000000 -0.000000 -0.000000
vn -1.000000 -0.000000 -0.000000
vn -1.000000 -0.000000 -0.000000
vn -1.000000 -0.000000 -0.000000
vn -1.000000 0.000000 -0.000000
vn -1.000000 0.000000 -0.000000
vn 0.000000 0.000000 -1.000000
vn 0.000000 0.000000 -1.000000
vn 1.000000 0.000000 0.000000
vn 1.000000 0.000000 0.000000
vn 0.000000 0.000000 1.000000
vn 0.000000 0.000000 1.000000
vn 0.000000 0.000000 1.000000
vn 0.000000 0.000000 1.000000
vn 0.000000 -1.000000 0.000000
vn 0.000000 -1.000000 0.000000
vn 1.000000 0.000000 0.000000
vn 1.000000 0.000000 0.000000
vn 0.000000 1.000000 0.000000
vn 0.000000 1.000000 0.000000
vn 0.000000 1.000000 0.000000
vn 0.000000 1.000000 0.000000
vn -1.000000 -0.000000 0.000000
vn -1.000000 -0.000000 0.000000
s off
g pCube18
usemtl initialShadingGroup
f 13/21/1 14/22/2 15/23/3 16/24/4
f 3/3/5 4/4/6 6/6/7 5/5/8
s 1
f 10/17/9 11/18/10 8/8/11 7/7/12
s 2
f 7/7/13 8/8/14 2/10/15 1/9/16
s 3
f 2/2/17 8/11/18 11/19/19 12/20/20
s 4
f 7/13/21 1/1/22 9/15/23 10/16/24
f 10/16/24 9/15/23 3/3/25 5/14/26
s 1
f 5/5/27 6/6/28 11/18/10 10/17/9
s 3
f 12/20/20 11/19/19 6/12/29 4/4/30
s off
f 9/15/31 12/20/32 4/4/33 3/3/34
s 2
f 1/1/16 2/2/15 14/22/35 13/21/36
s 3
f 2/2/17 12/20/20 15/23/37 14/22/38
s off
f 12/20/39 9/15/40 16/24/41 15/23/42
s 4
f 9/15/23 1/1/22 13/21/43 16/24/44
